<?xml version="1.0" encoding="UTF-8"?>
<svg xmlns="http://www.w3.org/2000/svg" width="90" height="90" fill="none">
  <g fill="#152753" clip-path="url(#a)">
    <path d="M18.9 65.903c.194-.256.277-.414.402-.525 1.826-1.646 3.617-3.343 5.823-4.495 2.33-1.215 4.835-1.912 7.391-2.442 3.415-.706 6.87-1.113 10.34-1.425 8.498-.765 17.015-.966 25.541-.869.164 0 .328.038.54.064a1.3 1.3 0 0 1-.134.239c-2.855 2.8-5.74 5.569-8.55 8.412-.872.882-1.751 1.245-3.015 1.234-12.318-.104-24.637-.139-36.956-.193zM51.506 38.06l-8.666-6.7c.681-.354 1.35-.716 2.03-1.04.132-.063.342-.007.503.041 3.856 1.166 7.714 2.329 11.563 3.52.434.135.727-.022 1.051-.22 2.212-1.35 4.419-2.7 6.638-4.036 1.333-.8 2.714-1.519 4.26-1.8a6.4 6.4 0 0 1 1.83-.042c.79.09 1.042.563.764 1.311-.568 1.53-1.495 2.845-2.772 3.83-1.327 1.025-2.768 1.904-4.18 2.815-1.14.736-2.315 1.422-3.468 2.14-.106.067-.227.2-.239.314-.16 1.542-.324 3.085-.439 4.63-.131 1.765-.22 3.534-.312 5.302-.016.296-.12.481-.385.62-.515.27-1.017.568-1.606.9-.649-2.88-1.642-5.59-2.706-8.33-.836.378-1.658.737-2.468 1.12-1.213.577-2.41 1.19-3.628 1.754-1.388.643-2.748 1.406-4.204 1.824-1.26.36-2.41.984-3.706 1.285l2.24-1.834-5.159-3.524c.834-.405 1.608-.796 2.4-1.151.13-.059.341.025.503.08 1.315.444 2.624.906 3.944 1.335a.74.74 0 0 0 .583-.09c1.248-.922 2.47-1.88 3.718-2.8.576-.428 1.197-.794 1.911-1.255"></path>
    <path d="m26.143 54.788-1.912 1.386c-.129-.188-.291-.371-.395-.584A25.4 25.4 0 0 1 21.4 47.4c-.76-6.35.54-12.251 4.103-17.556 4.005-5.954 9.62-9.545 16.73-10.62 7.25-1.085 13.838.592 19.598 5.198 1.057.846 2 1.834 3.055 2.81l-2.371 1.409c-.594-.568-1.17-1.17-1.8-1.71-3.204-2.788-6.924-4.516-11.124-5.093-6.564-.9-12.54.54-17.704 4.811-4.103 3.392-6.6 7.774-7.63 12.973-1.016 5.13-.44 10.095 1.777 14.85q.058.118.113.237c.008.011 0 .03-.003.078M58.577 68.04c-2.499 1.379-5.061 2.502-7.914 2.826a33 33 0 0 1-6.789.09c-2.198-.203-4.4-.36-6.6-.559-2.34-.211-4.685-.45-7.029-.673-2.023-.19-4.05-.36-6.07-.554-1.703-.159-3.404-.333-5.106-.498-.214-.02-.43-.03-.654-.145.187-.022.375-.055.563-.061 3.995-.133 7.99-.331 11.986-.375 6.955-.074 13.912-.055 20.868-.068 2.11-.005 4.218.01 6.327.017z"></path>
    <path d="M30.545 48.073c.91 0 1.769-.02 2.625.015.19.007.393.18.553.313.815.693 1.612 1.405 2.43 2.097.122.103.306.205.45.194 3.848-.31 7.38.768 10.78 2.43.607.296 1.198.59 1.586 1.214-.81-.217-1.587-.45-2.375-.63-5.122-1.2-10.022-.58-14.64 1.934-1.769.963-3.441 2.1-5.157 3.157-.08.05-.162.095-.244.143l-.125-.075c.376-.762.666-1.584 1.146-2.272 1.487-2.131 3.354-3.863 5.739-5.065zM67.32 36.416c.644-.384 1.273-.754 1.897-1.131.376-.227.44.116.509.31.27.772.546 1.545.749 2.336.785 3.081.907 6.205.551 9.36-.256 2.277-.846 4.464-1.658 6.602-.128.34-.294.437-.637.425-.686-.026-1.373-.008-2.149-.008 2.47-5.917 2.857-11.863.738-17.894"></path>
  </g>
  <defs>
    <clipPath id="a">
      <path fill="#fff" d="M0 0h90v90H0z"></path>
    </clipPath>
  </defs>
</svg>
